<svg width="237" height="112" viewBox="0 0 237 112" fill="none" xmlns="http://www.w3.org/2000/svg">
<path d="M76.4606 13.2767V69.883C76.4606 74.7888 76.2411 78.9743 75.8021 82.405C75.363 85.8356 74.3387 89.3349 72.7656 92.8685C70.1315 98.8036 65.8146 103.435 59.8148 106.763C53.7785 110.091 46.4617 111.737 37.7913 111.737C29.9989 111.737 23.4869 110.571 18.2554 108.272C13.0605 105.974 8.85333 102.234 5.63394 97.054C3.95107 94.3094 2.59746 91.1189 1.53653 87.551C0.512176 83.9831 0 80.5524 0 77.3275C0 73.8969 1.02435 71.2552 3.07306 69.437C5.12176 67.6187 7.71922 66.7267 10.9386 66.7267C14.0117 66.7267 16.353 67.5501 17.9262 69.2311C19.4993 70.9122 20.7065 73.5195 21.548 77.0531C22.426 80.8268 23.3406 83.8458 24.2186 86.1101C25.0966 88.3743 26.5966 90.2955 28.6819 91.9422C30.7671 93.5547 33.767 94.378 37.6449 94.378C47.9616 94.378 53.12 87.2765 53.12 73.0735V13.2767C53.12 8.85116 54.1443 5.5234 56.2296 3.32776C58.3149 1.09782 61.1319 0 64.6805 0C68.3023 0 71.1559 1.09782 73.2778 3.32776C75.3996 5.5577 76.4606 8.85116 76.4606 13.2767Z" fill="#ED5A4D"/>
<path d="M182.387 92.8685L163.766 28.0973L144.888 92.8685C143.425 97.7744 142.254 101.308 141.376 103.435C140.498 105.562 138.998 107.483 136.876 109.199C134.718 110.88 131.864 111.737 128.316 111.737C125.426 111.737 123.048 111.223 121.182 110.228C119.316 109.233 117.816 107.792 116.682 105.939C115.511 104.087 114.597 101.926 113.865 99.3868C113.133 96.8481 112.475 94.5153 111.889 92.3539L92.7195 19.5892C91.5488 15.3694 91 12.1446 91 9.94897C91 7.13582 92.0609 4.80295 94.1462 2.88177C96.2315 0.960591 98.7924 0 101.902 0C106.146 0 108.999 1.26935 110.463 3.84236C111.926 6.41537 113.206 10.1205 114.304 14.9578L129.377 78.048L146.278 19.006C147.522 14.4775 148.656 11.0468 149.644 8.67962C150.632 6.31245 152.242 4.28835 154.51 2.57301C156.778 0.85767 159.814 0 163.692 0C167.607 0 170.68 0.891977 172.838 2.67593C174.997 4.45988 176.533 6.41537 177.375 8.5424C178.216 10.6694 179.35 14.1344 180.741 19.006L197.789 78.048L212.861 14.9578C213.593 11.6643 214.288 9.0913 214.947 7.20443C215.605 5.35186 216.739 3.67083 218.312 2.19564C219.922 0.720443 222.227 0 225.263 0C228.3 0 230.897 0.960591 233.019 2.84746C235.141 4.73434 236.202 7.10151 236.202 9.94897C236.202 11.9731 235.617 15.1979 234.482 19.5892L215.312 92.3539C213.995 97.2598 212.898 100.862 212.056 103.161C211.215 105.459 209.715 107.449 207.666 109.164C205.581 110.88 202.691 111.737 198.923 111.737C195.374 111.737 192.484 110.914 190.362 109.233C188.204 107.552 186.704 105.699 185.899 103.607C185.094 101.514 183.887 97.9459 182.387 92.8685Z" fill="#ED5A4D"/>
</svg>
