<svg width="202" height="112" viewBox="0 0 202 112" fill="none" xmlns="http://www.w3.org/2000/svg">
<path d="M76.4606 13.2767V69.883C76.4606 74.7888 76.2411 78.9743 75.8021 82.405C75.363 85.8356 74.3387 89.3349 72.7656 92.8685C70.1315 98.8036 65.8146 103.435 59.8148 106.763C53.7785 110.091 46.4617 111.737 37.7913 111.737C29.9989 111.737 23.4869 110.571 18.2554 108.272C13.0605 105.974 8.85333 102.234 5.63394 97.054C3.95107 94.3094 2.59746 91.1189 1.53653 87.551C0.512176 83.9831 0 80.5524 0 77.3275C0 73.8969 1.02435 71.2552 3.07306 69.437C5.12176 67.6187 7.71922 66.7267 10.9386 66.7267C14.0117 66.7267 16.353 67.5501 17.9262 69.2311C19.4993 70.9122 20.7065 73.5195 21.548 77.0531C22.426 80.8268 23.3406 83.8458 24.2186 86.1101C25.0966 88.3743 26.5966 90.2955 28.6819 91.9422C30.7671 93.5547 33.767 94.378 37.6449 94.378C47.9616 94.378 53.12 87.2765 53.12 73.0735V13.2767C53.12 8.85116 54.1443 5.5234 56.2296 3.32776C58.3149 1.09782 61.1319 0 64.6805 0C68.3023 0 71.1559 1.09782 73.2778 3.32776C75.3996 5.5577 76.4606 8.85116 76.4606 13.2767Z" fill="#D13B2F"/>
<path d="M147.387 92.8685L128.766 28.0973L109.888 92.8685C108.425 97.7744 107.254 101.308 106.376 103.435C105.498 105.562 103.998 107.483 101.876 109.199C99.7179 110.88 96.8643 111.737 93.3157 111.737C90.4255 111.737 88.0476 111.223 86.1818 110.228C84.316 109.233 82.8161 107.792 81.682 105.939C80.5113 104.087 79.5967 101.926 78.865 99.3868C78.1333 96.8481 77.4748 94.5153 76.8895 92.3539L57.7195 19.5892C56.5488 15.3694 56 12.1446 56 9.94897C56 7.13582 57.0609 4.80295 59.1462 2.88177C61.2315 0.960591 63.7924 0 66.902 0C71.1458 0 73.9994 1.26935 75.4627 3.84236C76.9261 6.41537 78.2065 10.1205 79.304 14.9578L94.3766 78.048L111.278 19.006C112.522 14.4775 113.656 11.0468 114.644 8.67962C115.632 6.31245 117.242 4.28835 119.51 2.57301C121.778 0.85767 124.814 0 128.692 0C132.607 0 135.68 0.891977 137.838 2.67593C139.997 4.45988 141.533 6.41537 142.375 8.5424C143.216 10.6694 144.35 14.1344 145.741 19.006L162.789 78.048L177.861 14.9578C178.593 11.6643 179.288 9.0913 179.947 7.20443C180.605 5.35186 181.739 3.67083 183.312 2.19564C184.922 0.720443 187.227 0 190.263 0C193.3 0 195.897 0.960591 198.019 2.84746C200.141 4.73434 201.202 7.10151 201.202 9.94897C201.202 11.9731 200.617 15.1979 199.482 19.5892L180.312 92.3539C178.995 97.2598 177.898 100.862 177.056 103.161C176.215 105.459 174.715 107.449 172.666 109.164C170.581 110.88 167.691 111.737 163.923 111.737C160.374 111.737 157.484 110.914 155.362 109.233C153.204 107.552 151.704 105.699 150.899 103.607C150.094 101.514 148.887 97.9459 147.387 92.8685Z" fill="#ED5A4D"/>
</svg>
