<svg width="40" height="40" viewBox="0 0 40 40" fill="none" xmlns="http://www.w3.org/2000/svg">
<circle cx="20" cy="20" r="20" fill="#005AA7"/>
<path d="M18.0547 9.51406C17.5203 9.73437 17.2156 10.1187 17.1547 10.6391C17.1078 11.0562 17.1406 11.0469 15.9125 11.0469H14.8438V11.9844V12.9219H18.4766H22.1094V11.9844V11.0469H21.0406C19.8172 11.0469 19.85 11.0562 19.7891 10.6484C19.6906 9.94531 19.2125 9.5 18.5281 9.47187C18.3359 9.4625 18.1344 9.48125 18.0547 9.51406Z" fill="white"/>
<path d="M11.7176 11.9141C11.4363 12.0547 11.2488 12.2797 11.1598 12.5844C11.0613 12.9078 11.0613 28.6953 11.1598 29.0187C11.2535 29.3281 11.427 29.5344 11.7176 29.675L11.9613 29.7969L17.2582 29.7875C22.5176 29.7734 22.5551 29.7734 22.2738 29.6844C21.5004 29.4453 21.3926 29.2437 21.5848 28.4328L21.6691 28.0812L21.3973 27.7812C21.2473 27.6172 21.1113 27.4297 21.0973 27.3641C21.0832 27.2984 21.0645 27.2141 21.0504 27.1859C21.0363 27.1391 20.6145 27.125 19.1379 27.125H17.2395L17.1691 27.0219C17.0613 26.8719 17.0754 26.7687 17.216 26.6609C17.3379 26.5625 17.3895 26.5625 19.3629 26.5625H21.3879L21.5707 26.375C21.7395 26.2016 21.7488 26.1781 21.7066 26.0141L21.6645 25.8359L19.4613 25.8266C17.2816 25.8125 17.2582 25.8125 17.1785 25.7141C17.0613 25.5734 17.0754 25.4609 17.216 25.3484C17.3379 25.25 17.3895 25.25 19.4801 25.25H21.6176L21.6738 25.1234C21.7488 24.95 21.866 24.8844 22.3582 24.7109L22.7707 24.5703L22.902 24.1859C23.1176 23.5391 23.2629 23.4641 23.9988 23.6141L24.4582 23.7125L24.7066 23.4781C25.1238 23.0844 25.3254 23.0187 25.6395 23.1875L25.8129 23.2812V17.9516C25.8129 12.8937 25.8082 12.6078 25.7238 12.4297C25.616 12.1906 25.3066 11.9094 25.077 11.8484C24.9738 11.8203 24.4254 11.7969 23.7879 11.7969H22.6723V12.5375C22.6723 13.1281 22.6582 13.2969 22.5973 13.3812L22.527 13.4844H18.4816C14.6238 13.4844 14.4316 13.4797 14.3613 13.4C14.2957 13.325 14.2816 13.1937 14.2816 12.5562V11.7969H13.1191C11.966 11.7969 11.952 11.7969 11.7176 11.9141ZM14.9004 14.2391C15.5004 14.3656 16.0582 14.7922 16.316 15.3219C16.9629 16.6484 15.9926 18.2188 14.5207 18.2188C13.6207 18.2188 12.8473 17.6516 12.5895 16.8031C12.1488 15.3547 13.4332 13.9297 14.9004 14.2391ZM24.1535 15.2422C24.2426 15.3312 24.2613 15.3875 24.2379 15.4672C24.1676 15.6969 24.327 15.6875 20.6754 15.6875H17.2395L17.1691 15.5844C17.0613 15.4344 17.0754 15.3312 17.216 15.2234C17.3379 15.125 17.3754 15.125 20.6895 15.125H24.0363L24.1535 15.2422ZM22.691 16.5359C22.8316 16.6437 22.8457 16.7469 22.7379 16.8969L22.6676 17H19.9535H17.2395L17.1691 16.8969C17.0613 16.7469 17.0754 16.6437 17.216 16.5359C17.3379 16.4375 17.3801 16.4375 19.9535 16.4375C22.527 16.4375 22.5691 16.4375 22.691 16.5359ZM14.9004 19.3016C15.9551 19.5266 16.6863 20.5766 16.4941 21.6031C16.3863 22.1797 16.0066 22.7375 15.5238 23.0187C14.9895 23.3328 14.202 23.3703 13.6676 23.1031C13.2691 22.9062 13.0395 22.7094 12.8285 22.3812C12.4535 21.8094 12.3973 21.0547 12.6738 20.4547C12.9363 19.8969 13.4238 19.4844 13.9957 19.3344C14.366 19.2406 14.5676 19.2312 14.9004 19.3016ZM24.1535 20.3047C24.2426 20.3937 24.2613 20.45 24.2379 20.5297C24.1676 20.7594 24.327 20.75 20.6754 20.75H17.2395L17.1691 20.6469C17.066 20.5016 17.0754 20.4359 17.2113 20.3047L17.3238 20.1875H20.6801H24.0363L24.1535 20.3047ZM22.691 21.5984C22.8316 21.7062 22.8457 21.8516 22.7332 21.9781C22.6629 22.0578 22.5129 22.0625 19.9488 22.0625H17.2395L17.1691 21.9594C17.066 21.8141 17.0754 21.7484 17.2113 21.6172L17.3238 21.5H19.9441C22.527 21.5 22.5691 21.5 22.691 21.5984ZM14.9004 24.3641C15.5004 24.4906 16.0582 24.9172 16.316 25.4469C16.9629 26.7734 15.9926 28.3438 14.5207 28.3438C13.6207 28.3438 12.8473 27.7766 12.5895 26.9281C12.1488 25.4797 13.4332 24.0547 14.9004 24.3641Z" fill="white"/>
<path d="M14.1182 14.8108C13.7994 14.9187 13.6448 15.0171 13.4244 15.2655C12.6229 16.1562 13.2041 17.5671 14.4041 17.6468C14.8588 17.6749 15.1448 17.5765 15.4729 17.2765C15.8104 16.9671 15.9416 16.6671 15.9416 16.203C15.9463 15.7905 15.8432 15.528 15.5713 15.228C15.2338 14.853 14.5729 14.6608 14.1182 14.8108ZM15.4916 15.4812C15.7073 15.6312 15.6369 15.7577 14.9994 16.3999C14.5448 16.8546 14.3713 16.9999 14.2823 16.9999C14.1135 16.9999 13.4291 16.3108 13.4291 16.1374C13.4291 15.8046 13.7198 15.7812 14.0526 16.0952L14.2869 16.3108L14.7463 15.8608C15.0041 15.603 15.2479 15.4062 15.2948 15.4062C15.3463 15.4062 15.4354 15.439 15.4916 15.4812Z" fill="white"/>
<path d="M14.1421 19.8734C12.8437 20.2391 12.6796 21.95 13.8749 22.5875C14.039 22.6766 14.1468 22.6953 14.5171 22.6953C14.9156 22.6953 14.9859 22.6812 15.1781 22.5687C15.464 22.4 15.6703 22.1844 15.8203 21.8984C15.9843 21.5844 15.9984 21.0219 15.8484 20.6984C15.5484 20.0516 14.7937 19.6859 14.1421 19.8734ZM15.4921 20.5437C15.7078 20.6937 15.6374 20.8203 14.9999 21.4625C14.5453 21.9172 14.3718 22.0625 14.2828 22.0625C14.1046 22.0625 13.4296 21.3734 13.4296 21.1906C13.4296 21.1203 13.4671 21.0359 13.514 20.9984C13.664 20.8859 13.8093 20.9281 14.0531 21.1578L14.2874 21.3781L14.6953 20.975C15.2296 20.4453 15.2999 20.4078 15.4921 20.5437Z" fill="white"/>
<path d="M14.1182 24.9358C13.7994 25.0437 13.6448 25.1421 13.4244 25.3905C12.6229 26.2812 13.2041 27.6921 14.4041 27.7718C14.8588 27.7999 15.1448 27.7015 15.4729 27.4015C15.8104 27.0921 15.9416 26.7921 15.9416 26.328C15.9463 25.9155 15.8432 25.653 15.5713 25.353C15.2338 24.978 14.5729 24.7858 14.1182 24.9358ZM15.4916 25.6062C15.7073 25.7562 15.6369 25.8827 14.9994 26.5249C14.5448 26.9796 14.3713 27.1249 14.2823 27.1249C14.1135 27.1249 13.4291 26.4358 13.4291 26.2624C13.4291 25.9296 13.7198 25.9062 14.0526 26.2202L14.2869 26.4358L14.7463 25.9858C15.0041 25.728 15.2479 25.5312 15.2948 25.5312C15.3463 25.5312 15.4354 25.564 15.4916 25.6062Z" fill="white"/>
<path d="M24.9922 23.9797C24.7953 24.1626 24.6031 24.3126 24.5656 24.3126C24.5234 24.3126 24.3312 24.2704 24.1344 24.2235C23.4406 24.0547 23.5391 24.0126 23.3703 24.5516C23.2062 25.0766 23.2531 25.0391 22.6156 25.2266C22.3906 25.2922 22.1937 25.3672 22.1797 25.3907C22.1656 25.4141 22.1937 25.6157 22.25 25.8407C22.3016 26.061 22.3437 26.2719 22.3437 26.3094C22.3437 26.3469 22.1844 26.5485 21.9922 26.7547C21.8 26.961 21.6406 27.1532 21.6406 27.1813C21.6406 27.2094 21.7766 27.3782 21.9453 27.5516C22.1328 27.7438 22.25 27.9032 22.25 27.9688C22.25 28.0297 22.2078 28.2641 22.1516 28.4938C22.1 28.7235 22.0672 28.9391 22.0812 28.9766C22.0953 29.0141 22.2266 29.0797 22.3766 29.1219C23.0047 29.3001 22.9812 29.2813 23.1453 29.8157C23.225 30.0735 23.3094 30.3079 23.3328 30.3313C23.3562 30.3547 23.5297 30.3407 23.7594 30.2891C23.975 30.2376 24.1953 30.2047 24.2516 30.2047C24.3172 30.2094 24.5094 30.3501 24.7391 30.5657C25.175 30.9782 25.0812 30.9829 25.5875 30.5141C25.7328 30.3782 25.8781 30.2657 25.9156 30.2657C25.9484 30.2657 26.1875 30.3172 26.4453 30.3782C26.7031 30.4391 26.9281 30.4766 26.9469 30.4672C26.9656 30.4579 27.0406 30.2657 27.1062 30.0407C27.1766 29.8157 27.2516 29.6094 27.275 29.5766C27.3031 29.5438 27.5 29.4641 27.7203 29.3985C27.9406 29.3282 28.1656 29.2579 28.2266 29.2344L28.3344 29.1922L28.2453 28.7844C28.1984 28.5547 28.1562 28.3297 28.1562 28.2829C28.1562 28.2313 28.3156 28.0157 28.5125 27.8001C28.9203 27.3547 28.9203 27.4204 28.4937 26.9751C28.1984 26.6704 28.1937 26.6563 28.3437 26.0282C28.4 25.7985 28.4281 25.5969 28.4047 25.5735C28.3812 25.5501 28.1844 25.4797 27.9687 25.4141C27.7484 25.3485 27.5469 25.2688 27.5187 25.236C27.4859 25.2079 27.3969 24.9641 27.3125 24.6969C27.1437 24.1485 27.1766 24.1626 26.6094 24.3126C26.4172 24.3641 26.2437 24.4063 26.225 24.4063C26.2062 24.4063 26 24.2376 25.7703 24.0266L25.3484 23.6516L24.9922 23.9797ZM27.0406 26.0797C27.2375 26.2579 27.1812 26.3422 26.0328 27.486C25.1141 28.4094 24.9219 28.5782 24.8094 28.5782C24.6969 28.5782 24.5562 28.4657 24.0219 27.936C23.4594 27.3782 23.375 27.2751 23.375 27.1438C23.375 26.9704 23.4641 26.8766 23.6375 26.8766C23.7312 26.8766 23.8859 27.0032 24.2844 27.4016L24.8047 27.9219L25.7656 26.961C26.7687 25.9579 26.8484 25.9016 27.0406 26.0797Z" fill="white"/>
</svg>
