<svg width="74" height="74" viewBox="0 0 74 74" fill="none" xmlns="http://www.w3.org/2000/svg">
<path d="M6.25898 0.180473C4.14258 0.59063 1.87852 2.3461 0.910547 4.33125C0.598828 4.9711 0.254297 5.88985 0.172266 6.38203C-0.0574219 7.6125 -0.0574219 65.9203 0.172266 67.118C0.746484 70.1203 3.38789 72.7617 6.39023 73.3359C6.94805 73.4344 12.6738 73.5 22.0582 73.5H36.8402L36.266 73.057C35.0191 72.1383 31.8691 68.7586 30.8848 67.3148C28.8504 64.3289 27.3082 60.5883 26.652 57.0117C26.1926 54.5508 26.2254 49.7602 26.734 47.4141C28.998 36.7828 36.8074 28.9406 47.3402 26.7422C50.1621 26.1516 54.4934 26.1352 57.2496 26.6766L57.7582 26.775V24.5602V22.3289L48.5379 22.2797L39.3012 22.2305L38.4645 21.7875C37.2176 21.1313 36.709 20.6391 36.0855 19.4906L35.5277 18.457L35.4785 9.22031L35.4293 0L21.2051 0.0164108C13.3793 0.032814 6.65273 0.0984421 6.25898 0.180473ZM14.1668 13.3547C14.8723 13.6336 15.5613 14.4703 15.6926 15.1594L15.791 15.7172L17.5629 15.7828C19.4824 15.832 19.8598 15.9797 20.5816 16.9641C21.0574 17.6039 21.0574 19.1461 20.5816 19.7859C19.7449 20.9016 19.7449 20.918 15.2332 21C11.1645 21.082 11.1316 21.082 10.8199 21.4758C10.4262 21.968 10.4262 22.657 10.8199 23.1492C11.1152 23.5266 11.2629 23.543 13.5762 23.625C15.8566 23.7234 16.0699 23.7563 17.1035 24.232C18.6129 24.9375 19.5809 25.8727 20.3191 27.3656C20.8934 28.5469 20.9262 28.6945 20.9262 30.1711C20.9262 31.5984 20.877 31.8445 20.4012 32.8453C19.7121 34.3219 18.7605 35.3063 17.3496 36.0117C16.7262 36.3234 16.1191 36.5859 16.0043 36.5859C15.8895 36.5859 15.7582 36.8977 15.6926 37.275C15.5449 38.1445 14.6098 39.1289 13.7402 39.293C12.3293 39.5555 10.984 38.7844 10.6395 37.4719L10.4426 36.7828L8.68711 36.7172C6.78398 36.668 6.40664 36.5203 5.68477 35.5359C5.20898 34.8961 5.20898 33.3539 5.68477 32.7141C6.52148 31.5984 6.52148 31.582 11.0332 31.5C15.102 31.418 15.1348 31.418 15.4465 31.0242C15.8402 30.532 15.8402 29.843 15.4465 29.3508C15.1512 28.9734 15.0035 28.957 12.6902 28.875C10.4098 28.7766 10.1965 28.7438 9.16289 28.268C7.65352 27.5625 6.68555 26.6273 5.94727 25.1344C5.37305 23.9531 5.34023 23.8055 5.34023 22.3289C5.34023 20.9016 5.38945 20.6555 5.86523 19.6547C6.5543 18.1781 7.50586 17.1938 8.9168 16.4883C9.54023 16.1766 10.1473 15.9141 10.2621 15.9141C10.377 15.9141 10.5082 15.6188 10.5738 15.2742C10.8199 13.6664 12.6246 12.6984 14.1668 13.3547ZM19.7941 45.0516C20.6637 45.6914 20.9262 46.2164 20.9262 47.25C20.9262 48.2836 20.6637 48.8086 19.7941 49.4484C19.3676 49.7766 19.1051 49.793 13.4941 49.8422C9.65508 49.875 7.42383 49.8258 7.03008 49.7109C5.37305 49.2352 4.7332 46.9547 5.86523 45.593C6.68555 44.6414 6.73477 44.625 13.3301 44.6742C19.1215 44.707 19.3676 44.7234 19.7941 45.0516ZM19.7941 55.5516C20.6637 56.1914 20.9262 56.7164 20.9262 57.75C20.9262 58.7836 20.6637 59.3086 19.7941 59.9484C19.3676 60.2766 19.1051 60.293 13.4941 60.3422C9.65508 60.375 7.42383 60.3258 7.03008 60.2109C5.37305 59.7352 4.7332 57.4547 5.86523 56.093C6.68555 55.1414 6.73477 55.125 13.3301 55.1742C19.1215 55.207 19.3676 55.2234 19.7941 55.5516Z" fill="white"/>
<path d="M40.6953 10.0078V17.0625H47.7828H54.8867L47.832 10.0078C43.9602 6.11953 40.7609 2.95313 40.7445 2.95313C40.7117 2.95313 40.6953 6.11953 40.6953 10.0078Z" fill="white"/>
<path d="M50.213 31.6148C46.1278 32.0578 41.8294 33.9609 38.6466 36.7499C29.6067 44.6906 29.1309 58.8656 37.613 67.2163C39.6473 69.2179 40.9598 70.1695 43.1255 71.2687C49.852 74.6484 57.9567 74.107 64.3223 69.8413C65.8973 68.7913 68.8012 65.8874 69.8512 64.3124C72.1809 60.8179 73.5098 56.5523 73.5098 52.4999C73.5098 49.596 72.6239 45.7898 71.377 43.296C69.3262 39.2273 65.7989 35.6835 61.7302 33.6492C58.4981 32.0249 53.9208 31.221 50.213 31.6148ZM53.5762 42.2296C53.9536 42.3937 55.02 43.5093 57.0708 45.9046C58.695 47.8077 60.2208 49.6124 60.4669 49.9406C61.9598 51.8929 60.27 54.5179 57.8091 54.0585C57.3169 53.9765 56.9559 53.714 56.1684 52.8773L55.1512 51.7945L55.102 56.5687C55.0528 61.0804 55.0364 61.3593 54.7083 61.7859C54.0684 62.6554 53.5434 62.9179 52.5098 62.9179C51.4762 62.9179 50.9512 62.6554 50.3114 61.7859C49.9833 61.3593 49.9669 61.0804 49.9177 56.5687L49.8684 51.8109L48.8512 52.8773C48.0637 53.714 47.6864 53.9765 47.227 54.0585C45.045 54.4523 43.3552 52.4507 44.2083 50.482C44.5528 49.7109 50.7544 42.6398 51.3942 42.2952C52.0505 41.9507 52.838 41.9179 53.5762 42.2296Z" fill="white"/>
</svg>
