<svg width="40" height="40" viewBox="0 0 40 40" fill="none" xmlns="http://www.w3.org/2000/svg">
<circle cx="20" cy="20" r="20" fill="#005AA7"/>
<g clip-path="url(#clip0_1023_1676)">
<path d="M19.0063 8.71716C18.5328 9.11091 18.0875 9.47654 18.0078 9.53279C17.7031 9.74373 17.5672 9.7531 16.2453 9.66873C15.0359 9.58435 15.0172 9.58435 14.8953 9.6781C14.7922 9.7531 14.7406 9.89373 14.5297 10.7C14.3938 11.2109 14.2531 11.764 14.2063 11.9234C14.0891 12.3734 13.9156 12.5328 12.7859 13.2453C12.2422 13.5875 11.7734 13.9062 11.75 13.9531C11.7219 14 11.7031 14.0844 11.7031 14.1359C11.7031 14.1875 11.9047 14.7359 12.1484 15.35C12.5141 16.2687 12.5938 16.5125 12.5938 16.7187C12.5938 16.925 12.5141 17.1687 12.1484 18.0875C11.9047 18.7015 11.7031 19.2547 11.7031 19.3156C11.7031 19.4844 11.8109 19.5781 12.4531 19.9765C13.6672 20.7312 13.8969 20.8953 14.0234 21.0781C14.1172 21.214 14.2297 21.5703 14.4641 22.4656C14.7313 23.5062 14.7875 23.6844 14.8906 23.7594C15.0031 23.839 15.0453 23.8437 15.9922 23.7734C17.375 23.675 17.5953 23.6797 17.8484 23.8062C17.9609 23.8672 18.4344 24.2328 18.8984 24.6219C19.8313 25.4 19.9109 25.4562 20.0703 25.4187C20.1313 25.4047 20.5859 25.0484 21.0828 24.6359C21.5844 24.2187 22.0766 23.839 22.1797 23.7922C22.4141 23.6844 22.7047 23.6797 24.0078 23.7734C24.9547 23.8437 24.9969 23.839 25.1094 23.7594C25.2125 23.6844 25.2688 23.5062 25.5359 22.4703C25.7656 21.5656 25.8781 21.2234 25.9766 21.0828C26.1078 20.8906 26.375 20.7031 27.5469 19.9812C28.1844 19.5875 28.2969 19.4844 28.2969 19.3156C28.2969 19.2547 28.0953 18.7015 27.8516 18.0875C27.4859 17.1687 27.4063 16.925 27.4063 16.7187C27.4063 16.5125 27.4859 16.2687 27.8516 15.35C28.0953 14.7359 28.2969 14.1781 28.2969 14.1125C28.2969 13.939 28.175 13.8406 27.1578 13.2078C26.0938 12.5422 25.9109 12.3687 25.7938 11.9234C25.7469 11.764 25.6063 11.2109 25.4703 10.7C25.2594 9.89373 25.2078 9.7531 25.1047 9.6781C24.9828 9.58435 24.9641 9.58435 23.7547 9.66873C22.4047 9.75779 22.2828 9.74373 21.9688 9.50935C21.8797 9.43904 21.4297 9.07341 20.9703 8.69373C20.3188 8.14998 20.1078 7.99998 20.0047 7.99998C19.8969 7.99998 19.6813 8.15466 19.0063 8.71716ZM20.7734 11.8203C21.8609 11.9984 22.7234 12.4437 23.5156 13.2453C24.1906 13.925 24.5703 14.5906 24.8047 15.5234C25.2875 17.4172 24.5656 19.4844 23.0047 20.6562C21.5234 21.7765 19.5688 21.9828 17.9094 21.2C17.3234 20.9234 16.9531 20.6609 16.5031 20.2156C15.8563 19.5734 15.4297 18.8234 15.1813 17.8953C15.0781 17.5062 15.0641 17.3469 15.0641 16.7187C15.0641 16.0859 15.0781 15.9312 15.1813 15.5422C15.4438 14.5672 15.8141 13.9109 16.5031 13.2219C17.6516 12.064 19.1891 11.5625 20.7734 11.8203Z" fill="white"/>
<path d="M19.1343 12.6642C17.5312 13.0111 16.2749 14.2955 15.9468 15.9173C15.839 16.4423 15.8718 17.3423 16.0124 17.8345C16.214 18.5236 16.6265 19.1986 17.1468 19.7001C17.5265 20.0611 17.803 20.2486 18.2812 20.4689C18.7968 20.708 19.1765 20.797 19.7765 20.8298C21.0468 20.9001 22.1671 20.4455 23.0296 19.5173C23.5499 18.9548 23.9109 18.2564 24.0609 17.5205C24.164 16.9908 24.1312 16.0955 23.9859 15.5939C23.5593 14.1126 22.3452 12.9783 20.8405 12.6642C20.4374 12.5798 19.5234 12.5798 19.1343 12.6642ZM18.0702 15.0173C18.3187 15.2376 18.5671 15.4626 18.6234 15.5095C18.7218 15.5939 18.7265 15.5892 19.2749 15.1017C19.7671 14.6611 19.8421 14.6095 20.0015 14.6095C20.1609 14.6095 20.2359 14.6611 20.728 15.1017C21.2765 15.5892 21.2812 15.5939 21.3796 15.5095C21.4359 15.4626 21.6843 15.2423 21.9327 15.0173C22.3359 14.6611 22.4155 14.6095 22.5655 14.6095C22.7999 14.6095 22.9546 14.7595 22.9546 14.9798C22.9546 15.0736 22.7343 15.9267 22.4624 16.883C22.0452 18.3595 21.9562 18.6314 21.853 18.7205C21.7312 18.8283 21.7265 18.8283 20.0015 18.8283C18.2765 18.8283 18.2718 18.8283 18.1499 18.7205C18.0468 18.6314 17.9577 18.3548 17.5359 16.883C17.264 15.9267 17.0437 15.0783 17.039 14.9939C17.039 14.7689 17.203 14.6095 17.4327 14.6095C17.5921 14.6095 17.6624 14.6564 18.0702 15.0173Z" fill="white"/>
<path d="M19.442 16.0484C19.1701 16.2922 18.8982 16.5125 18.8373 16.5359C18.692 16.5922 18.5561 16.55 18.3967 16.4C18.3264 16.3344 18.2607 16.2875 18.2467 16.3016C18.2373 16.3109 18.3404 16.7 18.4717 17.1641L18.7107 18.0078H19.9998H21.2889L21.5279 17.1641C21.6592 16.7 21.7623 16.3109 21.7529 16.3016C21.7436 16.2875 21.6732 16.3344 21.6029 16.4C21.4436 16.55 21.3076 16.5922 21.1623 16.5359C21.1014 16.5125 20.8248 16.2922 20.5482 16.0438C20.2764 15.7953 20.0232 15.5938 19.9904 15.5984C19.9576 15.5984 19.7092 15.8 19.442 16.0484Z" fill="white"/>
<path d="M12.5845 26.8815C11.7407 28.344 11.061 29.544 11.0704 29.5533C11.0798 29.5627 11.7126 29.3986 12.486 29.1924C13.2548 28.9815 13.9204 28.8127 13.9626 28.8127C14.0048 28.8127 14.0985 28.8596 14.1642 28.9158C14.2626 29.0049 14.3517 29.2627 14.7032 30.4721C14.9329 31.269 15.1298 31.9299 15.1438 31.9393C15.1673 31.9627 15.1298 32.0283 16.9298 28.9065C17.8017 27.3971 18.5845 26.0424 18.6688 25.8971L18.8235 25.6299L18.1438 25.0627C17.7688 24.7533 17.4501 24.5002 17.4313 24.5002C17.4126 24.5002 16.9673 24.533 16.4376 24.5705C14.8579 24.683 14.6798 24.6643 14.3001 24.3455C14.2157 24.2752 14.1454 24.219 14.136 24.219C14.1267 24.219 13.4282 25.419 12.5845 26.8815Z" fill="white"/>
<path d="M25.7414 24.3127C25.6945 24.3643 25.5539 24.458 25.4227 24.5236C25.1367 24.6643 24.9492 24.669 23.5617 24.5705C23.032 24.533 22.5867 24.5002 22.568 24.5002C22.5492 24.5002 22.2305 24.7533 21.8555 25.0627L21.1758 25.6299L21.3305 25.8971C21.4148 26.0424 22.1977 27.3971 23.0695 28.9065C24.8695 32.0283 24.832 31.9627 24.8555 31.9393C24.8695 31.9299 25.0664 31.269 25.2961 30.4721C25.6477 29.2627 25.7367 29.0049 25.8352 28.9205C25.9008 28.8596 25.9945 28.8127 26.0367 28.8127C26.0836 28.8127 26.7492 28.9815 27.518 29.1924C28.2867 29.3986 28.9242 29.5627 28.9289 29.5533C28.9523 29.5299 25.8867 24.2236 25.8539 24.219C25.8398 24.219 25.7883 24.2611 25.7414 24.3127Z" fill="white"/>
</g>
<defs>
<clipPath id="clip0_1023_1676">
<rect width="24" height="24" fill="white" transform="translate(8 8)"/>
</clipPath>
</defs>
</svg>
