<svg width="40" height="40" viewBox="0 0 40 40" fill="none" xmlns="http://www.w3.org/2000/svg">
<circle cx="20" cy="20" r="20" fill="#005AA7"/>
<path d="M12.6594 8.30917C12.3922 8.40292 12.125 8.64667 11.9609 8.94198L11.8203 9.1951V19.9998V30.8045L11.9609 31.0576C12.0359 31.1935 12.1813 31.3764 12.2797 31.4654C12.6594 31.7842 12.1344 31.7654 20 31.7654C27.8656 31.7654 27.3406 31.7842 27.7203 31.4654C27.8188 31.3764 27.9641 31.1935 28.0391 31.0576L28.1797 30.8045V19.9998V9.1951L28.0391 8.94198C27.9641 8.80604 27.8188 8.62323 27.7203 8.53417C27.3406 8.21542 27.8703 8.23417 19.9813 8.23885C13.8594 8.23885 12.8234 8.25292 12.6594 8.30917ZM16.4891 10.8357C16.8172 11.0654 16.9672 11.3232 16.9906 11.6795C17.0094 11.9373 16.9906 12.0217 16.8828 12.242C16.6719 12.6779 16.2969 12.8748 15.6781 12.8748H15.3594V13.4935C15.3594 14.0607 15.35 14.1217 15.2563 14.2201C15.1297 14.356 14.8813 14.3654 14.75 14.2342C14.6609 14.1451 14.6562 14.0795 14.6562 12.4998C14.6562 10.9014 14.6609 10.8545 14.7547 10.7607C14.8438 10.6717 14.8953 10.667 15.5703 10.681C16.2828 10.6951 16.2922 10.6951 16.4891 10.8357ZM17.7969 10.7185C17.9609 10.8076 17.9844 11.0185 17.9844 12.3404V13.6248H18.5844C19.1234 13.6248 19.1938 13.6342 19.2875 13.7185C19.4234 13.8451 19.4234 14.1076 19.2969 14.2342C19.2078 14.3232 19.1422 14.3279 18.3172 14.3279H17.4266L17.3328 14.206C17.2391 14.0842 17.2344 14.0279 17.2344 12.4998C17.2344 10.9717 17.2391 10.9154 17.3328 10.7935C17.4359 10.6623 17.6328 10.6295 17.7969 10.7185ZM21.35 10.7935C21.4859 10.8592 21.6594 10.9904 21.7344 11.0842C21.9828 11.3842 22.0156 11.5904 22.0156 12.8982C22.0156 14.0232 22.0109 14.0889 21.9172 14.206C21.8 14.356 21.5656 14.3701 21.4016 14.2389C21.2984 14.1545 21.2891 14.1076 21.275 13.6295L21.2563 13.1092H20.8156H20.375V13.5967C20.375 14.0139 20.3609 14.0982 20.2766 14.206C20.15 14.3654 19.8734 14.3795 19.7375 14.2295C19.6531 14.1357 19.6484 14.042 19.6484 12.8326C19.6484 11.4264 19.6438 11.4498 19.9344 11.0654C20.2156 10.6857 20.8766 10.5592 21.35 10.7935ZM23.1125 10.6998C23.1547 10.7185 23.5109 11.192 23.9047 11.7592L24.6172 12.7904L24.6313 11.8389C24.6406 10.9389 24.65 10.8826 24.7438 10.7795C24.8703 10.6435 25.1188 10.6342 25.25 10.7654C25.3391 10.8545 25.3438 10.9201 25.3438 12.4998C25.3438 14.0795 25.3391 14.1451 25.25 14.2342C25.1938 14.2904 25.0953 14.3279 24.9969 14.3279C24.8 14.3279 24.7438 14.267 23.9328 13.0857L23.3516 12.242L23.3281 13.1935C23.3047 14.1264 23.3 14.1498 23.1922 14.2389C23.0281 14.3701 22.7938 14.356 22.6766 14.206C22.5828 14.0842 22.5781 14.0279 22.5781 12.4904V10.9014L22.6953 10.7889C22.8031 10.6764 22.9625 10.6435 23.1125 10.6998ZM26.0047 16.4795C26.0891 16.5826 26.0938 16.6764 26.0938 17.8389C26.0891 19.1467 26.0844 19.1748 25.8734 19.2873C25.7984 19.3295 24.7859 19.3435 22.0297 19.3435C18.5703 19.3435 18.2797 19.3389 18.1719 19.2639C18.1063 19.217 17.7547 18.9217 17.3891 18.6029C16.6859 17.9935 16.6063 17.881 16.7375 17.6842C16.8125 17.567 18.0172 16.5076 18.1906 16.4045C18.2656 16.3576 19.1609 16.3482 22.1 16.3576L25.9156 16.367L26.0047 16.4795ZM16.1094 16.9998C16.1656 17.056 16.2031 17.1545 16.2031 17.2435C16.2031 17.3795 16.1188 17.4826 15.5141 18.0873C14.6656 18.9404 14.6656 18.9404 14.2063 18.481C13.8781 18.1529 13.8266 17.9935 13.9906 17.8014C14.1266 17.6373 14.3328 17.6279 14.5109 17.7732L14.6609 17.8998L15.1719 17.4029C15.6266 16.9576 15.6969 16.906 15.8469 16.906C15.9547 16.906 16.0484 16.9389 16.1094 16.9998ZM25.9766 20.5857L26.0938 20.6982V21.9357C26.0938 23.117 26.0891 23.1826 25.9953 23.2998L25.9016 23.4217H22.0484L18.1953 23.417L17.4641 22.7889C16.7 22.1326 16.6156 22.0201 16.7281 21.8092C16.7609 21.7435 17.1125 21.4201 17.5109 21.0826L18.2281 20.4685H22.0438H25.8641L25.9766 20.5857ZM16.1234 21.1342C16.1656 21.1857 16.2031 21.2982 16.2031 21.3779C16.2031 21.5092 16.1141 21.617 15.5094 22.217C14.6656 23.056 14.6891 23.0467 14.225 22.5873C13.8641 22.2264 13.8266 22.0904 14.0234 21.8982C14.1688 21.7482 14.3469 21.7482 14.5391 21.8935L14.6891 22.0107L15.1063 21.5842C15.3359 21.3545 15.5891 21.1201 15.6641 21.0732C15.8281 20.9654 16.0016 20.9889 16.1234 21.1342ZM25.9953 24.7154C26.0891 24.8326 26.0938 24.8982 26.0938 26.0795V27.317L25.9766 27.4295L25.8641 27.5467H22.0438H18.2234L17.4734 26.9092C17.0656 26.5576 16.7141 26.2248 16.7 26.1732C16.6391 25.9389 16.6813 25.892 17.9047 24.8607L18.2188 24.5935H22.0578H25.9016L25.9953 24.7154ZM16.0813 25.2076C16.1703 25.2779 16.2031 25.3435 16.2031 25.4748C16.2031 25.6295 16.1469 25.6998 15.5375 26.3139C14.6797 27.1717 14.6844 27.167 14.2344 26.717C13.8734 26.3607 13.8359 26.2435 14.0047 26.0279C14.1313 25.8685 14.3656 25.8639 14.5484 26.0185L14.6797 26.1357L15.2 25.6201C15.7625 25.067 15.8516 25.0248 16.0813 25.2076Z" fill="white"/>
<path d="M15.3594 11.75V12.125H15.6828C15.8609 12.125 16.0437 12.1109 16.0859 12.0969C16.1984 12.05 16.3016 11.8156 16.2687 11.6797C16.2172 11.4641 16.0391 11.375 15.6828 11.375H15.3594V11.75Z" fill="white"/>
<path d="M20.6328 11.4313C20.4313 11.5391 20.375 11.6656 20.375 12.0172V12.3594H20.8203H21.2656V12.0266C21.2656 11.6469 21.2234 11.5438 21.0312 11.4453C20.8719 11.3609 20.7641 11.3563 20.6328 11.4313Z" fill="white"/>
<path d="M18.0688 17.45C17.8391 17.6469 17.6562 17.8203 17.6562 17.8438C17.6562 17.8672 17.8438 18.0453 18.0734 18.2375L18.4906 18.5938H21.9172H25.3438V17.8438V17.0938H21.9125L18.4766 17.0984L18.0688 17.45ZM22.4375 17.5391C22.5125 17.5812 22.5922 17.6656 22.6063 17.7266C22.6484 17.8953 22.5453 18.1062 22.3953 18.1672C22.3063 18.2047 21.7156 18.2188 20.45 18.2094L18.6313 18.1953L18.5422 18.0828C18.4203 17.9328 18.4297 17.7219 18.5703 17.5859L18.6828 17.4688H20.4922C22.0203 17.4688 22.325 17.4781 22.4375 17.5391Z" fill="white"/>
<path d="M18.0766 21.5516C17.8329 21.7625 17.6266 21.9359 17.6173 21.9453C17.6126 21.95 17.8048 22.1281 18.0485 22.3344L18.4938 22.7188H21.9204H25.3423V21.9453V21.1719H21.9345H18.522L18.0766 21.5516ZM22.5063 21.7109C22.647 21.8516 22.6563 22.0109 22.5251 22.175L22.4313 22.2969H20.5329C18.7001 22.2969 18.6345 22.2922 18.5454 22.2031C18.4048 22.0625 18.4188 21.8141 18.5735 21.6922C18.6954 21.5984 18.747 21.5938 20.547 21.5938H22.3938L22.5063 21.7109Z" fill="white"/>
<path d="M18.0782 25.6672C17.8391 25.8687 17.6516 26.0516 17.6563 26.075C17.661 26.0984 17.8579 26.2812 18.0923 26.4781L18.5188 26.8438H21.9313H25.3438V26.0703V25.2969H21.9266H18.5095L18.0782 25.6672ZM22.5266 25.8406C22.6579 26.0047 22.6485 26.1641 22.5079 26.3047L22.3954 26.4219H20.5345C18.6829 26.4219 18.6688 26.4219 18.561 26.3187C18.4204 26.1875 18.4204 25.9719 18.5563 25.8266L18.6548 25.7188H20.5438H22.4329L22.5266 25.8406Z" fill="white"/>
</svg>
