<?xml version="1.0" encoding="UTF-8"?>
<svg version="1.1" xmlns="http://www.w3.org/2000/svg" width="40" height="38">
<path d="M0 0 C3.58552881 1.63687185 4.79315055 2.68972583 7 6 C7.54602034 9.39107371 7.54627924 12.60874176 7 16 C4.80977082 18.82424288 3.16982793 20.41508603 0 22 C-5.78993435 22.36761488 -5.78993435 22.36761488 -8 22 C-8.43489746 21.5042749 -8.86979492 21.0085498 -9.31787109 20.49780273 C-11.57822101 18.48513993 -12.89605034 18.65265546 -15.88671875 18.70703125 C-17.2934082 18.7215332 -17.2934082 18.7215332 -18.72851562 18.73632812 C-19.70498047 18.76146484 -20.68144531 18.78660156 -21.6875 18.8125 C-22.67556641 18.82603516 -23.66363281 18.83957031 -24.68164062 18.85351562 C-27.12164231 18.88887797 -29.56054719 18.93822967 -32 19 C-32.33 18.01 -32.66 17.02 -33 16 C-25.41 16 -17.82 16 -10 16 C-12.40059817 14.79970092 -13.89360649 14.88540257 -16.5703125 14.90234375 C-17.91416016 14.90717773 -17.91416016 14.90717773 -19.28515625 14.91210938 C-20.22230469 14.92048828 -21.15945312 14.92886719 -22.125 14.9375 C-23.54232422 14.94426758 -23.54232422 14.94426758 -24.98828125 14.95117188 C-27.32558387 14.96297643 -29.66276061 14.97944241 -32 15 C-32.59732819 12.23735711 -33 9.83967231 -33 7 C-32.30849854 7.00523682 -31.61699707 7.01047363 -30.90454102 7.01586914 C-27.79053648 7.036575 -24.67654639 7.04963963 -21.5625 7.0625 C-20.47388672 7.07087891 -19.38527344 7.07925781 -18.26367188 7.08789062 C-16.71196289 7.09272461 -16.71196289 7.09272461 -15.12890625 7.09765625 C-14.17056885 7.10289307 -13.21223145 7.10812988 -12.22485352 7.11352539 C-10.02714661 7.2505313 -10.02714661 7.2505313 -9 6 C-10.32 6 -11.64 6 -13 6 C-10.36002195 -0.09225703 -6.25187995 -0.8059064 0 0 Z M3 10 C4 13 4 13 4 13 Z M-10 11 C-9 13 -9 13 -9 13 Z " fill="#F87215" transform="translate(33,14)"/>
<path d="M0 0 C2.64 0 5.28 0 8 0 C8.02689216 1.47906892 8.04634621 2.95827483 8.0625 4.4375 C8.07410156 5.26121094 8.08570313 6.08492188 8.09765625 6.93359375 C8 9 8 9 7 10 C6.76712992 11.68183948 6.58735834 13.3712416 6.4375 15.0625 C6.31181641 16.44115234 6.31181641 16.44115234 6.18359375 17.84765625 C6.12300781 18.55792969 6.06242187 19.26820312 6 20 C5.01 20 4.02 20 3 20 C2.92652344 18.95199219 2.92652344 18.95199219 2.8515625 17.8828125 C2.77679688 16.97273438 2.70203125 16.06265625 2.625 15.125 C2.55539062 14.22007813 2.48578125 13.31515625 2.4140625 12.3828125 C2.20431868 9.82058097 2.20431868 9.82058097 0 8 C-0.26991906 5.31160615 -0.08737357 2.70858064 0 0 Z M3 6 C3 6.66 3 7.32 3 8 C3.99 8 4.98 8 6 8 C6 7.34 6 6.68 6 6 C5.01 6 4.02 6 3 6 Z " fill="#F87215" transform="translate(12,0)"/>
<path d="M0 0 C7.59 0 15.18 0 23 0 C22.34 1.32 21.68 2.64 21 4 C14.73 4 8.46 4 2 4 C1.34 2.68 0.68 1.36 0 0 Z " fill="#F87216" transform="translate(0,34)"/>
<path d="M0 0 C1.67542976 0.28604898 3.34385343 0.61781233 5 1 C5.042721 2.66611905 5.04063832 4.33382885 5 6 C4.67 6.33 4.34 6.66 4 7 C3.92741054 9.18639453 3.91626217 11.37500389 3.9375 13.5625 C3.94652344 14.76003906 3.95554687 15.95757812 3.96484375 17.19140625 C3.97644531 18.11824219 3.98804688 19.04507812 4 20 C2.68 20 1.36 20 0 20 C0.01160156 19.07316406 0.02320313 18.14632813 0.03515625 17.19140625 C0.04417969 15.99386719 0.05320312 14.79632813 0.0625 13.5625 C0.07410156 12.36753906 0.08570313 11.17257812 0.09765625 9.94140625 C0.33901792 7.11126659 0.33901792 7.11126659 -1 6 C-1.125 3.5 -1.125 3.5 -1 1 C-0.67 0.67 -0.34 0.34 0 0 Z " fill="#F87215" transform="translate(5,0)"/>
<path d="M0 0 C1.625 2 1.625 2 3 4 C1.625 5.5 1.625 5.5 0 7 C-0.66 7 -1.32 7 -2 7 C-3.625 5 -3.625 5 -5 3 C-2.25 0 -2.25 0 0 0 Z " fill="#F97214" transform="translate(36,0)"/>
<path d="M0 0 C1.32 0.66 2.64 1.32 4 2 C4 2.66 4 3.32 4 4 C3.34 4 2.68 4 2 4 C2 4.66 2 5.32 2 6 C1.34 6 0.68 6 0 6 C-0.66 4.68 -1.32 3.36 -2 2 C-1.34 2 -0.68 2 0 2 C0 1.34 0 0.68 0 0 Z " fill="#F97214" transform="translate(26,8)"/>
</svg>
