<svg width="58" height="70" viewBox="0 0 58 70" fill="none" xmlns="http://www.w3.org/2000/svg">
<path fill-rule="evenodd" clip-rule="evenodd" d="M0 14C0 6.26801 6.26801 0 14 0H35V14C35 21.732 41.268 28 49 28H56V56C56 63.732 49.732 70 42 70H14C6.26801 70 0 63.732 0 56V14ZM14 31.5C12.067 31.5 10.5 33.067 10.5 35C10.5 36.933 12.067 38.5 14 38.5H21C22.933 38.5 24.5 36.933 24.5 35C24.5 33.067 22.933 31.5 21 31.5H14ZM14 45.5C12.067 45.5 10.5 47.067 10.5 49C10.5 50.933 12.067 52.5 14 52.5H28C29.933 52.5 31.5 50.933 31.5 49C31.5 47.067 29.933 45.5 28 45.5H14ZM44.3863 7.69576L43.928 14.5701C43.7871 16.683 45.5402 18.436 47.6531 18.2951L54.5274 17.8368C57.5278 17.6368 58.8957 13.996 56.7694 11.8697L50.3534 5.4537C48.2271 3.3274 44.5863 4.69537 44.3863 7.69576Z" fill="white"/>
</svg>
