<?xml version="1.0" encoding="UTF-8"?>
<svg version="1.1" xmlns="http://www.w3.org/2000/svg" width="40" height="40">
<path d="M0 0 C1.15628906 0.00607269 1.15628906 0.00607269 2.3359375 0.01226807 C3.12742187 0.01035461 3.91890625 0.00844116 4.734375 0.00646973 C6.4088574 0.00510789 8.08335035 0.00880425 9.7578125 0.01715088 C12.32576131 0.02785067 14.89301053 0.01725582 17.4609375 0.00445557 C19.08593905 0.00577716 20.71094016 0.00833956 22.3359375 0.01226807 C23.10679688 0.0082196 23.87765625 0.00417114 24.671875 0 C30.10601618 0.04797174 30.10601618 0.04797174 32.3359375 2.27789307 C33.75132165 11.95983728 34.78252408 25.10439615 31.0859375 34.35601807 C28.53229543 37.76752427 26.41928638 39.3203703 22.3359375 40.27789307 C13.19218758 41.37536703 3.46699971 41.61274487 -5.6640625 40.27789307 C-8.20971662 37.73223894 -7.9113026 36.08613592 -7.94195557 32.61383057 C-7.9379071 31.84297119 -7.93385864 31.07211182 -7.9296875 30.27789307 C-7.93160095 29.48640869 -7.9335144 28.69492432 -7.93548584 27.87945557 C-7.93684768 26.20497317 -7.93315132 24.53048022 -7.92480469 22.85601807 C-7.9141049 20.28806925 -7.92469975 17.72082003 -7.9375 15.15289307 C-7.9361784 13.52789152 -7.93361601 11.9028904 -7.9296875 10.27789307 C-7.93373596 9.50703369 -7.93778442 8.73617432 -7.94195557 7.94195557 C-7.88279826 1.24073741 -6.70121815 0.0591573 0 0 Z M-0.6640625 11.27789307 C-0.6640625 11.60789307 -0.6640625 11.93789307 -0.6640625 12.27789307 C3.6259375 12.27789307 7.9159375 12.27789307 12.3359375 12.27789307 C12.3359375 11.94789307 12.3359375 11.61789307 12.3359375 11.27789307 C8.0459375 11.27789307 3.7559375 11.27789307 -0.6640625 11.27789307 Z M0.3359375 17.27789307 C0.3359375 17.60789307 0.3359375 17.93789307 0.3359375 18.27789307 C6.2759375 18.27789307 12.2159375 18.27789307 18.3359375 18.27789307 C18.3359375 17.94789307 18.3359375 17.61789307 18.3359375 17.27789307 C12.3959375 17.27789307 6.4559375 17.27789307 0.3359375 17.27789307 Z M-0.6640625 24.27789307 C-0.6640625 24.60789307 -0.6640625 24.93789307 -0.6640625 25.27789307 C7.9159375 25.27789307 16.4959375 25.27789307 25.3359375 25.27789307 C25.3359375 24.94789307 25.3359375 24.61789307 25.3359375 24.27789307 C16.7559375 24.27789307 8.1759375 24.27789307 -0.6640625 24.27789307 Z M23.3359375 30.27789307 C23.0059375 31.92789307 22.6759375 33.57789307 22.3359375 35.27789307 C23.9859375 33.62789307 25.6359375 31.97789307 27.3359375 30.27789307 C26.0159375 30.27789307 24.6959375 30.27789307 23.3359375 30.27789307 Z " fill="#3A81F5" transform="translate(7.6640625,-0.27789306640625)"/>
</svg>
