<svg width="42" height="40" viewBox="0 0 42 40" fill="none" xmlns="http://www.w3.org/2000/svg">
<ellipse cx="21.209" cy="20" rx="20.791" ry="20" fill="#BF83FF"/>
<path fill-rule="evenodd" clip-rule="evenodd" d="M13.9346 11C12.7863 11 11.8555 11.8954 11.8555 13V27C11.8555 28.1046 12.7863 29 13.9346 29H28.4883C29.6365 29 30.5674 28.1046 30.5674 27V13C30.5674 11.8954 29.6365 11 28.4883 11H13.9346ZM17.0532 21C17.0532 20.4477 16.5878 20 16.0137 20C15.4395 20 14.9741 20.4477 14.9741 21V25C14.9741 25.5523 15.4395 26 16.0137 26C16.5878 26 17.0532 25.5523 17.0532 25V21ZM21.2114 17C21.7856 17 22.251 17.4477 22.251 18V25C22.251 25.5523 21.7856 26 21.2114 26C20.6373 26 20.1719 25.5523 20.1719 25V18C20.1719 17.4477 20.6373 17 21.2114 17ZM27.4487 15C27.4487 14.4477 26.9833 14 26.4092 14C25.8351 14 25.3696 14.4477 25.3696 15V25C25.3696 25.5523 25.8351 26 26.4092 26C26.9833 26 27.4487 25.5523 27.4487 25V15Z" fill="white"/>
</svg>
