<?xml version="1.0" encoding="UTF-8"?>
<svg version="1.1" xmlns="http://www.w3.org/2000/svg" width="40" height="40">
<path d="M0 0 C2.31 0 4.62 0 7 0 C6.67 1.32 6.34 2.64 6 4 C5.34 4 4.68 4 4 4 C4.99 5.485 4.99 5.485 6 7 C6.70164642 8.98799818 7.37372872 10.98698517 8 13 C9.32 13 10.64 13 12 13 C12.66 13 13.32 13 14 13 C14.16435547 11.96939453 14.16435547 11.96939453 14.33203125 10.91796875 C14.49058594 10.01691406 14.64914063 9.11585937 14.8125 8.1875 C14.96332031 7.29417969 15.11414063 6.40085937 15.26953125 5.48046875 C16.06470047 2.78029519 16.75937312 1.6694867 19 0 C21.6875 -0.1875 21.6875 -0.1875 24 0 C22.79618552 2.49361571 21.54571278 4.68143083 20 7 C20.33 7.99 20.66 8.98 21 10 C24.44630058 8.85123314 24.91620679 7.80859085 27 5 C27.66 5 28.32 5 29 5 C29.25 10.625 29.25 10.625 27 14 C24.8359375 14.51171875 24.8359375 14.51171875 22.375 14.6875 C21.55773438 14.75324219 20.74046875 14.81898437 19.8984375 14.88671875 C19.27195312 14.92410156 18.64546875 14.96148437 18 15 C18 15.66 18 16.32 18 17 C17.34 17 16.68 17 16 17 C16 17.66 16 18.32 16 19 C15.34 19 14.68 19 14 19 C13.67 19.99 13.34 20.98 13 22 C11.02043058 23.69088222 9.02054804 25.35830472 7 27 C6.67 27.66 6.34 28.32 6 29 C5.34 29 4.68 29 4 29 C3.67 29.99 3.34 30.98 3 32 C1.328125 33.859375 1.328125 33.859375 -0.75 35.75 C-1.42546875 36.38421875 -2.1009375 37.0184375 -2.796875 37.671875 C-5 39 -5 39 -7.765625 38.703125 C-8.50296875 38.47109375 -9.2403125 38.2390625 -10 38 C-10 37.01 -10 36.02 -10 35 C-9.34 35 -8.68 35 -8 35 C-7.67 34.01 -7.34 33.02 -7 32 C-6.34 32 -5.68 32 -5 32 C-4.731875 31.360625 -4.46375 30.72125 -4.1875 30.0625 C-3 28 -3 28 0 27 C0.34342449 25.66923011 0.67619874 24.33568021 1 23 C1.99 22.34 2.98 21.68 4 21 C4.04289755 19.06890419 4.04289755 19.06890419 3 17 C-0.48797488 15.20728609 -0.48797488 15.20728609 -4 14 C-4.33 15.65 -4.66 17.3 -5 19 C-7.86724686 18.42655063 -8.8614515 18.1385485 -11 16 C-11 15.01 -11 14.02 -11 13 C-9.35 12.34 -7.7 11.68 -6 11 C-6.33 9.68 -6.66 8.36 -7 7 C-5.47005208 5.76302083 -3.94010417 4.52604167 -2.41015625 3.2890625 C-0.86733563 2.0333609 -0.86733563 2.0333609 0 0 Z " fill="#A754F7" transform="translate(11,0)"/>
<path d="M0 0 C1.65 0 3.3 0 5 0 C5 0.66 5 1.32 5 2 C5.99 2.33 6.98 2.66 8 3 C8 3.66 8 4.32 8 5 C8.66 5 9.32 5 10 5 C10 5.66 10 6.32 10 7 C10.66 7 11.32 7 12 7 C12.33 9.31 12.66 11.62 13 14 C11.68 14.33 10.36 14.66 9 15 C6 11.25 6 11.25 6 9 C5.34 9 4.68 9 4 9 C1.3125 6.1875 1.3125 6.1875 -1 3 C-0.67 2.01 -0.34 1.02 0 0 Z " fill="#A754F7" transform="translate(27,25)"/>
</svg>
