<svg width="74" height="74" viewBox="0 0 74 74" fill="none" xmlns="http://www.w3.org/2000/svg">
<path d="M19.0578 0.117916C18.8609 0.199947 18.582 0.429634 18.4344 0.642918C18.1883 0.971043 18.1719 3.13667 18.1719 23.7757V46.5476H21.2891H24.4062V29.8132C24.4062 13.1445 24.4062 13.0953 24.7508 12.7835C24.9312 12.6031 25.4562 12.4062 25.9156 12.357C27.1953 12.1765 27.95 11.7992 28.7211 10.946C29.443 10.1421 29.8203 9.2562 29.8203 8.33745C29.8203 7.96011 29.968 7.64839 30.2961 7.32026L30.7719 6.84448H36.7109H42.65L43.1258 7.32026C43.4539 7.64839 43.6016 7.96011 43.6016 8.33745C43.6016 9.22338 43.9625 10.1093 44.6352 10.8804C45.4391 11.7992 45.9477 12.0617 47.4242 12.3406C48.1461 12.4718 48.6711 12.6687 48.8023 12.8492C48.9664 13.0789 49.0156 16.4421 49.0156 29.846V46.5476H52.1328H55.25V23.7593V0.954636L54.8562 0.495262L54.4625 0.0358849L36.9242 0.00307465C27.2609 -0.0133324 19.2383 0.0358849 19.0578 0.117916Z" fill="white"/>
<path d="M32.2812 9.74839C32.2812 10.2242 31.3789 11.996 30.8047 12.6523C30.0828 13.4726 29 14.1945 27.9664 14.5554L27.1133 14.8507L27.0641 30.6992L27.0312 46.5476H36.7109H46.3906L46.3578 30.6992L46.3086 14.8343L45.6195 14.6375C44.6844 14.3585 43.4211 13.5382 42.6992 12.7179C42.0758 12.0289 41.1406 10.257 41.1406 9.74839C41.1406 9.48589 40.8125 9.46948 36.7109 9.46948C32.6094 9.46948 32.2812 9.48589 32.2812 9.74839ZM38.532 15.3265C41.4852 16.8359 41.4852 20.9703 38.532 22.4632C36.5141 23.4968 34.1187 22.7257 33.0523 20.7078C32.7898 20.2156 32.7078 19.7562 32.7078 18.9031C32.7078 18.05 32.7898 17.5906 33.0523 17.0984C34.1187 15.0804 36.5141 14.3093 38.532 15.3265ZM39.5656 28.3039C42.4531 29.6492 44.0281 32.7992 43.3719 35.8671C42.9125 38.0656 41.6 39.7062 39.5 40.707C38.5156 41.1828 38.3023 41.2156 36.6945 41.2156C35.0375 41.2156 34.9227 41.1992 33.725 40.5921C29.4758 38.5085 28.557 33.0289 31.8711 29.7148C32.7406 28.8289 33.9547 28.1234 35.0211 27.8445C35.3656 27.7625 36.2844 27.7132 37.0719 27.746C38.2367 27.7953 38.6797 27.8937 39.5656 28.3039Z" fill="white"/>
<path d="M35.6587 18.0171C35.1993 18.5585 35.1337 18.9851 35.429 19.5265C35.7079 20.0843 36.0689 20.2812 36.7415 20.2976C37.2009 20.2976 37.4306 20.1828 37.7587 19.789C37.9884 19.5101 38.1853 19.1164 38.1853 18.9031C38.1853 18.6898 37.9884 18.296 37.7587 18.0171C37.4306 17.607 37.2009 17.5085 36.7087 17.5085C36.2165 17.5085 35.9868 17.607 35.6587 18.0171Z" fill="white"/>
<path d="M34.9875 30.6994C33.9047 31.1916 33.0188 32.1923 32.707 33.2751C32.3789 34.358 32.3789 34.6205 32.707 35.7361C33.0352 36.8353 34.2984 38.1642 35.332 38.4759C36.9891 38.9681 38.7281 38.4923 39.8438 37.2455C40.582 36.4416 40.8773 35.5884 40.8609 34.4072C40.8281 31.4212 37.6945 29.4361 34.9875 30.6994Z" fill="white"/>
<path d="M4.27403 39.4765C0.664658 40.707 -1.00878 44.7757 0.631845 48.2867C1.14044 49.3695 2.53497 50.7312 3.68341 51.2726L4.63497 51.7156H36.7092H68.7834L69.8826 51.1742C72.36 49.9601 73.8037 47.1875 73.3444 44.5296C72.9834 42.3968 71.7365 40.707 69.8826 39.7882L68.7834 39.2468L63.3365 39.1976L57.8733 39.1484V44.1523V49.1726H36.7092H15.5451V44.1687V39.1648H10.3443C5.7506 39.1812 5.02872 39.214 4.27403 39.4765Z" fill="white"/>
<path d="M32.2977 55.1774C31.986 55.5875 31.9532 55.8336 31.9532 58.4586V61.3133H29.4266H26.8837L26.5555 61.7399C25.8337 62.6422 25.8501 62.6586 31.1985 68.0235C35.661 72.486 36.2352 73.011 36.711 73.011C37.1868 73.011 37.761 72.486 42.2235 68.0235C47.572 62.6586 47.5884 62.6422 46.8665 61.7399L46.5384 61.3133H43.9954H41.4688V58.4586C41.4688 55.8336 41.436 55.5875 41.1243 55.1774L40.7962 54.7508H36.711H32.6259L32.2977 55.1774Z" fill="white"/>
</svg>
