<?xml version="1.0" encoding="UTF-8"?>
<svg version="1.1" xmlns="http://www.w3.org/2000/svg" width="40" height="40">
<path d="M0 0 C2 3 2 3 2.875 5.5625 C3.77016439 8.04440268 3.77016439 8.04440268 5.625 9.125 C7.06763237 9.65649613 8.51460598 10.17664054 9.96875 10.67578125 C11.03609375 11.05283203 11.03609375 11.05283203 12.125 11.4375 C12.80820313 11.66308594 13.49140625 11.88867188 14.1953125 12.12109375 C16 13 16 13 18 16 C20.47266765 15.65555119 20.47266765 15.65555119 23 15 C23.33 14.34 23.66 13.68 24 13 C25.61098653 12.06238879 27.26411715 11.19608599 28.9375 10.375 C29.83339844 9.92898437 30.72929687 9.48296875 31.65234375 9.0234375 C34 8 34 8 36 8 C36.28875 7.236875 36.5775 6.47375 36.875 5.6875 C38 3 38 3 40 0 C40.086985 3.77068832 40.14038579 7.54111932 40.1875 11.3125 C40.21263672 12.38435547 40.23777344 13.45621094 40.26367188 14.56054688 C40.27333984 15.58857422 40.28300781 16.61660156 40.29296875 17.67578125 C40.3086792 18.62364502 40.32438965 19.57150879 40.34057617 20.5480957 C40 23 40 23 38.95825195 24.80786133 C35.92256313 26.65591875 32.82435975 26.42757844 29.375 26.3984375 C28.2600415 26.40274277 28.2600415 26.40274277 27.12255859 26.40713501 C25.5524011 26.40917476 23.98221814 26.403651 22.41210938 26.39111328 C20.00853668 26.37505703 17.60664539 26.39096352 15.203125 26.41015625 C13.67707962 26.4081738 12.15103529 26.40433009 10.625 26.3984375 C9.90618652 26.40451019 9.18737305 26.41058289 8.44677734 26.4168396 C5.61551233 26.37692611 3.49272588 26.29996016 1.04174805 24.80786133 C-0.38769176 22.32719535 -0.34029279 20.53099862 -0.29296875 17.67578125 C-0.2784668 16.13374023 -0.2784668 16.13374023 -0.26367188 14.56054688 C-0.23853516 13.48869141 -0.21339844 12.41683594 -0.1875 11.3125 C-0.16719727 9.68731445 -0.16719727 9.68731445 -0.14648438 8.02929688 C-0.11110643 5.35236595 -0.06174189 2.67643162 0 0 Z " fill="#21C45D" transform="translate(0,12)"/>
<path d="M0 0 C1.59134766 -0.04253906 1.59134766 -0.04253906 3.21484375 -0.0859375 C6.0625 0.375 6.0625 0.375 7.94140625 2.2109375 C9.0625 4.375 9.0625 4.375 9.0625 7.375 C12.0325 7.375 15.0025 7.375 18.0625 7.375 C17.81236131 11.6273578 17.49363402 13.85064781 14.75 17.1875 C11.349956 19.95497767 9.47161121 21.375 5.0625 21.375 C4.7325 20.715 4.4025 20.055 4.0625 19.375 C1.4225 19.375 -1.2175 19.375 -3.9375 19.375 C-4.2675 20.035 -4.5975 20.695 -4.9375 21.375 C-9.80581281 20.92213369 -12.42309226 19.79178531 -15.9375 16.375 C-17.99306739 13.340591 -18.13879748 10.99835457 -17.9375 7.375 C-14.9675 7.375 -11.9975 7.375 -8.9375 7.375 C-8.81375 6.59125 -8.69 5.8075 -8.5625 5 C-7.34120487 -0.12943956 -4.74708301 0.0575404 0 0 Z M-3.9375 3.375 C-4.2675 4.695 -4.5975 6.015 -4.9375 7.375 C-1.6375 7.375 1.6625 7.375 5.0625 7.375 C4.7325 6.055 4.4025 4.735 4.0625 3.375 C1.4225 3.375 -1.2175 3.375 -3.9375 3.375 Z " fill="#21C45D" transform="translate(19.9375,1.625)"/>
<path d="M0 0 C1.98 0 3.96 0 6 0 C6 1.65 6 3.3 6 5 C2.25 6.125 2.25 6.125 0 5 C0 3.35 0 1.7 0 0 Z " fill="#21C55E" transform="translate(17,22)"/>
</svg>
